<?xml version="1.0" encoding="iso-8859-1"?>
<!-- Uploaded to: SVG Repo, www.svgrepo.com, Generator: SVG Repo Mixer Tools -->
<svg height="800px" width="800px" version="1.1" id="Layer_1" xmlns="http://www.w3.org/2000/svg" xmlns:xlink="http://www.w3.org/1999/xlink" 
	 viewBox="0 0 512.002 512.002" xml:space="preserve">
<g>
	<path style="fill:#A4E276;" d="M502.782,187.924c-11.685-42.532-34.439-81.589-65.797-112.947
		c-0.109-0.107-0.216-0.209-0.324-0.315C388.344,26.514,324.198-0.002,255.971,0c-20.265-0.002-40.503,2.403-60.164,7.137
		c-0.067,0.019-0.14,0.033-0.206,0.047c-0.006,0.003-0.009,0.003-0.012,0.005c-0.036,0.008-0.07,0.019-0.102,0.026
		c-45.564,11.036-87.242,34.464-120.543,67.763c-99.707,99.707-99.81,261.876-0.315,361.719c0.105,0.107,0.209,0.217,0.315,0.323
		C123.295,485.371,187.581,512,255.963,512c0.003,0-0.003,0,0,0.002c68.376-0.002,132.671-26.632,181.02-74.979
		c33.755-33.755,57.334-76.067,68.191-122.375c0.003-0.023,0.012-0.042,0.016-0.064C514.94,272.933,514.107,229.136,502.782,187.924
		z"/>
	<path style="fill:#A4E276;" d="M502.782,187.924c-11.685-42.532-34.439-81.589-65.797-112.947
		c-0.109-0.107-0.216-0.209-0.324-0.315C388.344,26.514,324.198-0.002,255.971,0c-20.265-0.002-40.503,2.403-60.164,7.137
		c-0.067,0.019-0.14,0.033-0.206,0.047c-0.006,0.003-0.009,0.003-0.012,0.005c-0.036,0.008-0.07,0.019-0.102,0.026
		c-45.564,11.036-87.242,34.464-120.543,67.763c-99.707,99.707-99.81,261.876-0.315,361.719c0.105,0.107,0.209,0.217,0.315,0.323
		C123.295,485.371,187.581,512,255.963,512c0.003,0-0.003,0,0,0c68.376-0.002,132.671-26.632,181.02-74.979
		c33.755-33.755,57.334-76.067,68.191-122.375c0.003-0.023,0.012-0.042,0.016-0.064C514.94,272.933,514.107,229.136,502.782,187.924
		z"/>
</g>
<path style="fill:#368B4C;" d="M273.973,237.348c-3.981-3.835-8.994-5.975-14.125-6.419c-0.022-0.002-0.042-0.002-0.064-0.003
	c-0.709-0.059-1.418-0.088-2.13-0.082c-0.07,0.002-0.14,0.009-0.209,0.009c-0.661,0.011-1.325,0.043-1.981,0.11
	c-0.127,0.012-0.251,0.039-0.379,0.054c-0.604,0.071-1.202,0.155-1.8,0.273c-0.185,0.036-0.363,0.093-0.546,0.133
	c-0.537,0.119-1.075,0.242-1.606,0.402c-0.236,0.071-0.467,0.166-0.703,0.247c-0.47,0.157-0.939,0.309-1.399,0.497
	c-0.292,0.119-0.573,0.268-0.861,0.4c-0.394,0.182-0.794,0.351-1.182,0.554c-0.34,0.18-0.664,0.393-0.998,0.59
	c-0.321,0.192-0.652,0.366-0.967,0.576c-0.406,0.268-0.794,0.574-1.185,0.87c-0.227,0.171-0.464,0.323-0.684,0.504
	c-0.607,0.495-1.192,1.024-1.758,1.587l-38.96,38.96v-67.24c0-12.853-10.419-23.271-23.273-23.271
	c-12.851,0-23.273,10.419-23.27,23.271v113.788l-30.255,30.252v-67.24c0-12.853-10.419-23.273-23.273-23.273
	c-12.851,0.002-23.273,10.418-23.273,23.273v82.053v31.733l-3.336,3.336l-0.815,0.816c-0.563,0.565-1.094,1.151-1.587,1.756
	c-0.185,0.227-0.34,0.465-0.515,0.697c-0.293,0.388-0.597,0.77-0.861,1.171c-0.209,0.315-0.385,0.644-0.576,0.965
	c-0.197,0.334-0.41,0.659-0.591,0.999c-0.203,0.388-0.372,0.788-0.554,1.184c-0.13,0.287-0.279,0.568-0.397,0.858
	c-0.188,0.459-0.34,0.931-0.496,1.399c-0.079,0.236-0.175,0.467-0.248,0.704c-0.157,0.532-0.282,1.074-0.403,1.614
	c-0.039,0.178-0.095,0.355-0.13,0.534c-0.118,0.602-0.203,1.207-0.276,1.815c-0.012,0.121-0.039,0.242-0.051,0.363
	c-0.067,0.663-0.099,1.328-0.109,1.994c-0.003,0.067-0.009,0.133-0.012,0.199c-0.003,0.714,0.025,1.427,0.085,2.14
	c0,0.017,0,0.036,0.003,0.054c0.442,5.131,2.582,10.144,6.419,14.13L273.973,237.348z"/>
<path style="fill:#6DC82A;" d="M107.851,437.018l0.818-0.818l3.339-3.336l31.622-0.002h82.161
	c12.854-0.002,23.273-10.42,23.273-23.273c0-12.854-10.419-23.273-23.273-23.273l-67.237-0.002l30.249-30.249l113.783-0.002
	c12.854,0,23.273-10.422,23.273-23.273c0-12.854-10.419-23.275-23.273-23.275l-67.234,0.002l38.957-38.957
	c9.087-9.089,9.087-23.822,0-32.913c-0.109-0.107-0.227-0.196-0.337-0.303L74.639,436.684c0.106,0.109,0.194,0.228,0.303,0.334
	c4.543,4.544,10.501,6.816,16.454,6.817C97.35,443.834,103.308,441.562,107.851,437.018z"/>
<path style="fill:#A6D864;" d="M274.31,237.649c-0.109-0.107-0.227-0.199-0.337-0.303l0,0
	C274.082,237.454,274.201,237.544,274.31,237.649z"/>
<path style="fill:#64C37D;" d="M74.639,436.684c-3.837-3.986-5.981-8.994-6.419-14.13c-0.003-0.019-0.003-0.036-0.003-0.054
	c-0.061-0.712-0.092-1.426-0.085-2.14c0.003-0.065,0.009-0.132,0.012-0.199c0.009-0.666,0.042-1.331,0.109-1.994
	c0.012-0.123,0.039-0.242,0.051-0.363c0.073-0.608,0.155-1.213,0.276-1.815c0.036-0.18,0.092-0.355,0.13-0.534
	c0.121-0.542,0.245-1.081,0.403-1.614c0.073-0.237,0.169-0.469,0.248-0.704c0.157-0.469,0.309-0.939,0.496-1.4
	c0.118-0.29,0.267-0.571,0.397-0.858c0.182-0.396,0.352-0.796,0.554-1.184c0.182-0.34,0.394-0.666,0.591-0.999
	c0.191-0.321,0.366-0.65,0.576-0.965c0.264-0.402,0.566-0.784,0.861-1.171c0.175-0.231,0.33-0.472,0.515-0.697
	c0.493-0.607,1.024-1.192,1.587-1.756l0.815-0.816l3.336-3.336v-31.733V286.17c0-12.854,10.422-23.271,23.273-23.273
	c12.854,0,23.273,10.42,23.273,23.273v67.24l30.255-30.252V209.371c-0.003-12.853,10.419-23.271,23.27-23.271
	c12.854,0,23.273,10.42,23.273,23.271v67.24l38.96-38.96c0.566-0.565,1.151-1.094,1.758-1.587c0.222-0.182,0.458-0.334,0.684-0.504
	c0.391-0.296,0.779-0.602,1.185-0.87c0.315-0.208,0.645-0.383,0.967-0.576c0.334-0.197,0.658-0.41,0.998-0.59
	c0.388-0.203,0.788-0.372,1.182-0.554c0.289-0.132,0.569-0.281,0.861-0.4c0.461-0.188,0.931-0.338,1.399-0.496
	c0.236-0.079,0.467-0.175,0.703-0.247c0.531-0.16,1.071-0.281,1.606-0.402c0.182-0.04,0.36-0.098,0.546-0.133
	c0.597-0.119,1.196-0.2,1.8-0.273c0.127-0.014,0.251-0.04,0.379-0.054c0.658-0.068,1.319-0.099,1.981-0.11
	c0.07-0.002,0.14-0.009,0.209-0.009c0.712-0.006,1.421,0.025,2.13,0.082c0.022,0.002,0.042,0.002,0.064,0.003
	c5.134,0.439,10.139,2.583,14.125,6.419l63.94-63.937c-0.436-0.425-0.875-0.849-1.325-1.257c-0.14-0.123-0.282-0.24-0.42-0.363
	c-0.521-0.461-1.046-0.92-1.579-1.358c-0.051-0.042-0.105-0.082-0.161-0.124c-0.788-0.641-1.6-1.24-2.422-1.831
	c-0.009-0.008-0.019-0.014-0.031-0.022c-0.624-0.448-1.263-0.872-1.905-1.289c-0.185-0.121-0.366-0.242-0.552-0.36
	c-0.703-0.444-1.412-0.874-2.13-1.28c-0.019-0.009-0.037-0.02-0.051-0.029c-0.003-0.002-0.006-0.005-0.012-0.006
	c-0.203-0.116-0.413-0.23-0.617-0.344c-0.028-0.016-0.054-0.028-0.082-0.042c-0.798-0.433-1.606-0.839-2.422-1.227
	c-0.127-0.061-0.254-0.121-0.385-0.18c-0.827-0.385-1.663-0.754-2.506-1.094c-0.009-0.002-0.022-0.008-0.031-0.012
	c-0.887-0.355-1.784-0.686-2.687-0.991c-0.092-0.031-0.185-0.061-0.276-0.09c-0.773-0.258-1.548-0.492-2.327-0.711
	c-0.178-0.05-0.357-0.101-0.537-0.147c-0.836-0.227-1.679-0.433-2.521-0.616c-0.033-0.006-0.07-0.017-0.102-0.023
	c-0.891-0.191-1.781-0.352-2.676-0.496c-0.191-0.029-0.379-0.053-0.566-0.082c-0.709-0.106-1.418-0.194-2.13-0.27
	c-0.222-0.023-0.439-0.047-0.661-0.068c-0.928-0.087-1.857-0.157-2.788-0.191c-0.025-0.002-0.048-0.002-0.073-0.003
	c-1.237-0.045-2.476-0.036-3.716,0.006c-1.04,0.036-2.079,0.095-3.115,0.192c-0.23,0.022-0.458,0.048-0.684,0.071
	c-0.697,0.074-1.395,0.164-2.088,0.268c-0.2,0.029-0.4,0.054-0.6,0.087c-0.894,0.143-1.784,0.306-2.67,0.496
	c-0.009,0.002-0.016,0.003-0.025,0.006c-0.874,0.186-1.736,0.403-2.6,0.638c-0.169,0.045-0.337,0.093-0.503,0.14
	c-0.788,0.222-1.57,0.458-2.346,0.717c-0.088,0.031-0.178,0.057-0.267,0.087c-1.784,0.607-3.539,1.314-5.264,2.119
	c-0.098,0.047-0.197,0.095-0.293,0.141c-0.842,0.4-1.679,0.819-2.5,1.268c-0.003,0.002-0.003,0.002-0.006,0.003
	c0,0.002,0,0.002-0.003,0.002c-0.233,0.129-0.47,0.256-0.7,0.389c-0.216,0.121-0.427,0.248-0.639,0.374
	c-1.046,0.61-2.073,1.254-3.081,1.944c-0.312,0.213-0.618,0.434-0.928,0.656c-0.83,0.6-1.654,1.207-2.451,1.859
	c-0.025,0.02-0.051,0.039-0.076,0.059c-0.579,0.472-1.148,0.967-1.713,1.468c-0.098,0.087-0.194,0.166-0.292,0.251
	c-0.645,0.585-1.282,1.19-1.907,1.814c-9.087,9.089-23.824,9.089-32.913,0c-4.546-4.543-6.819-10.501-6.816-16.457
	c-0.003-5.955,2.27-11.913,6.816-16.456c20.131-20.131,20.131-52.884,0-73.015c-0.937-0.936-1.908-1.825-2.906-2.681
	c-0.112-0.096-0.225-0.197-0.337-0.292c-0.951-0.804-1.933-1.561-2.937-2.29c-0.169-0.121-0.337-0.245-0.503-0.366
	c-0.991-0.698-2.006-1.364-3.039-1.989c-0.188-0.116-0.375-0.227-0.566-0.34c-1.046-0.616-2.109-1.199-3.195-1.739
	c-0.169-0.088-0.346-0.164-0.515-0.251c-1.128-0.545-2.27-1.058-3.43-1.519c-0.099-0.04-0.2-0.074-0.299-0.112
	c-1.182-0.459-2.379-0.88-3.59-1.254c-0.073-0.025-0.146-0.051-0.219-0.073c-1.218-0.369-2.458-0.683-3.703-0.96
	c-0.166-0.037-0.33-0.079-0.497-0.115c-1.209-0.258-2.433-0.469-3.663-0.638c-0.118-0.017-0.233-0.033-0.352-0.047
	c-1.091-0.143-2.185-0.264-3.291-0.34c-0.757-0.048-1.507-0.14-2.245-0.262c-0.267-0.043-0.531-0.112-0.797-0.166
	c-0.458-0.09-0.915-0.183-1.364-0.299c-0.318-0.085-0.624-0.188-0.937-0.282c-0.385-0.119-0.77-0.24-1.145-0.379
	c-0.324-0.119-0.642-0.253-0.957-0.386c-0.349-0.146-0.694-0.295-1.033-0.458c-0.318-0.152-0.627-0.312-0.937-0.476
	c-0.327-0.175-0.649-0.357-0.967-0.549c-0.296-0.178-0.588-0.358-0.878-0.549c-0.315-0.209-0.621-0.427-0.925-0.65
	c-0.27-0.197-0.537-0.393-0.797-0.602c-0.312-0.25-0.61-0.512-0.906-0.777c-0.233-0.206-0.47-0.407-0.69-0.622
	c-0.318-0.306-0.621-0.63-0.922-0.953c-0.182-0.195-0.369-0.383-0.546-0.586c-0.382-0.438-0.74-0.9-1.085-1.365
	c-0.079-0.106-0.163-0.2-0.239-0.304c-0.413-0.577-0.801-1.175-1.161-1.787c-0.121-0.213-0.227-0.434-0.346-0.65
	c-0.222-0.41-0.445-0.816-0.642-1.241c-0.143-0.296-0.261-0.602-0.388-0.905c-0.146-0.355-0.299-0.707-0.43-1.072
	c-0.124-0.346-0.227-0.697-0.337-1.047c-0.028-0.09-0.051-0.178-0.076-0.265c-0.076-0.251-0.155-0.496-0.222-0.751
	c-0.098-0.372-0.175-0.751-0.254-1.13c-0.07-0.34-0.137-0.676-0.191-1.019c-0.061-0.383-0.109-0.765-0.152-1.153
	c-0.039-0.372-0.073-0.743-0.095-1.122c-0.022-0.349-0.036-0.695-0.042-1.044c-0.006-0.455,0.003-0.908,0.022-1.356
	c0.009-0.188-0.003-0.371,0.009-0.562c0.009-0.098,0.028-0.192,0.036-0.292c0.039-0.517,0.105-1.024,0.178-1.53
	c0.036-0.237,0.061-0.476,0.099-0.712c0.099-0.549,0.227-1.088,0.36-1.626c0.048-0.185,0.082-0.371,0.13-0.554
	c0.194-0.687,0.416-1.362,0.67-2.026c0.109-0.289,0.242-0.563,0.363-0.846c0.161-0.38,0.318-0.757,0.496-1.125
	c0.155-0.306,0.324-0.604,0.487-0.906c0.182-0.33,0.36-0.661,0.557-0.982c0.175-0.284,0.36-0.557,0.549-0.832
	c0.219-0.326,0.439-0.649,0.676-0.965c0.185-0.245,0.379-0.486,0.573-0.725c0.267-0.33,0.543-0.652,0.827-0.967
	c0.188-0.205,0.379-0.408,0.573-0.607c0.321-0.33,0.652-0.649,0.995-0.957c0.182-0.169,0.366-0.337,0.554-0.496
	c0.372-0.318,0.757-0.618,1.148-0.912c0.185-0.14,0.363-0.281,0.551-0.413c0.41-0.289,0.833-0.557,1.263-0.818
	c0.194-0.118,0.382-0.245,0.576-0.357c0.422-0.24,0.858-0.456,1.294-0.672c0.223-0.112,0.442-0.233,0.673-0.337
	c0.385-0.172,0.782-0.321,1.179-0.476c0.296-0.115,0.585-0.242,0.884-0.346c0.109-0.039,0.23-0.064,0.34-0.099
	c0.531-0.172,1.061-0.335,1.603-0.47c-45.564,11.036-87.243,34.464-120.543,67.763c-99.707,99.707-99.81,261.876-0.315,361.719
	L74.639,436.684z"/>
<g>
	<path style="fill:#9BD44E;" d="M273.973,237.348c-3.984-3.835-8.991-5.98-14.125-6.419
		C264.979,231.373,269.992,233.513,273.973,237.348L273.973,237.348z"/>
	<path style="fill:#9BD44E;" d="M68.22,422.554c0.436,5.136,2.582,10.144,6.419,14.13l0,0
		C70.802,432.698,68.662,427.685,68.22,422.554z"/>
	<path style="fill:#9BD44E;" d="M249.031,232.568c0.461-0.188,0.931-0.34,1.399-0.496
		C249.962,232.228,249.492,232.379,249.031,232.568z"/>
	<path style="fill:#9BD44E;" d="M243.155,236.061c0.222-0.182,0.458-0.334,0.684-0.504
		C243.613,235.728,243.376,235.881,243.155,236.061z"/>
	<path style="fill:#9BD44E;" d="M72.838,406.56c0.175-0.231,0.33-0.472,0.515-0.697C73.168,406.088,73.015,406.328,72.838,406.56z"
		/>
	<path style="fill:#9BD44E;" d="M68.144,420.163c0.009-0.666,0.042-1.331,0.109-1.994C68.186,418.832,68.154,419.496,68.144,420.163
		z"/>
	<path style="fill:#9BD44E;" d="M257.656,230.843c0.712-0.005,1.421,0.023,2.13,0.082
		C259.077,230.868,258.368,230.837,257.656,230.843z"/>
	<path style="fill:#9BD44E;" d="M253.285,231.29c0.597-0.118,1.196-0.2,1.8-0.273C254.483,231.089,253.882,231.172,253.285,231.29z"
		/>
	<path style="fill:#9BD44E;" d="M68.217,422.502c-0.061-0.712-0.088-1.426-0.085-2.14C68.126,421.076,68.157,421.789,68.217,422.502
		z"/>
	<path style="fill:#9BD44E;" d="M255.464,230.964c0.658-0.068,1.322-0.099,1.981-0.11
		C256.782,230.864,256.121,230.895,255.464,230.964z"/>
	<path style="fill:#9BD44E;" d="M245.025,234.686c0.315-0.208,0.645-0.383,0.967-0.576
		C245.67,234.303,245.34,234.476,245.025,234.686z"/>
	<path style="fill:#9BD44E;" d="M251.133,231.825c0.531-0.16,1.071-0.282,1.606-0.402
		C252.204,231.544,251.664,231.665,251.133,231.825z"/>
	<path style="fill:#9BD44E;" d="M68.306,417.805c0.073-0.608,0.158-1.213,0.276-1.815C68.459,416.592,68.377,417.198,68.306,417.805
		z"/>
	<path style="fill:#9BD44E;" d="M246.989,233.521c0.388-0.203,0.788-0.372,1.182-0.554
		C247.776,233.148,247.377,233.317,246.989,233.521z"/>
	<path style="fill:#9BD44E;" d="M69.362,413.137c0.157-0.469,0.309-0.939,0.496-1.399C69.671,412.198,69.52,412.668,69.362,413.137z
		"/>
	<path style="fill:#9BD44E;" d="M68.711,415.456c0.121-0.542,0.245-1.081,0.403-1.614C68.957,414.375,68.832,414.915,68.711,415.456
		z"/>
	<path style="fill:#9BD44E;" d="M70.256,410.879c0.182-0.396,0.352-0.796,0.554-1.184C70.608,410.083,70.439,410.483,70.256,410.879
		z"/>
	<path style="fill:#9BD44E;" d="M71.402,408.696c0.191-0.321,0.366-0.65,0.576-0.965C71.769,408.046,71.593,408.375,71.402,408.696z
		"/>
</g>
<g>
	<path style="fill:#A6D864;" d="M74.627,436.695c0.106,0.107,0.209,0.217,0.315,0.323c-0.109-0.107-0.197-0.225-0.303-0.334
		L74.627,436.695z"/>
	<path style="fill:#A6D864;" d="M74.639,436.684c0.106,0.109,0.194,0.227,0.303,0.334C74.833,436.912,74.744,436.793,74.639,436.684
		L74.639,436.684z"/>
</g>
<path style="fill:#91DC5A;" d="M338.113,173.601c0.124,0.124,0.254,0.237,0.375,0.358c0.673,0.67,1.316,1.358,1.939,2.054
	c0.216,0.237,0.413,0.483,0.621,0.721c0.403,0.467,0.807,0.936,1.188,1.413c0.233,0.292,0.458,0.586,0.684,0.88
	c0.337,0.442,0.673,0.881,0.995,1.331c0.227,0.313,0.445,0.633,0.664,0.953c0.303,0.442,0.6,0.886,0.884,1.334
	c0.213,0.326,0.416,0.656,0.618,0.987c0.276,0.456,0.546,0.915,0.807,1.379c0.188,0.327,0.372,0.656,0.551,0.988
	c0.264,0.486,0.509,0.979,0.754,1.471c0.155,0.313,0.315,0.625,0.464,0.942c0.267,0.56,0.509,1.126,0.754,1.693
	c0.105,0.256,0.225,0.507,0.33,0.762c0.34,0.832,0.658,1.668,0.954,2.513c0.102,0.298,0.191,0.602,0.292,0.901
	c0.067,0.205,0.133,0.41,0.197,0.616c0.092,0.289,0.194,0.574,0.279,0.864c0.258,0.869,0.486,1.744,0.697,2.624
	c0.175,0.737,0.34,1.474,0.486,2.216c0.036,0.192,0.064,0.388,0.098,0.582c0.036,0.189,0.064,0.38,0.098,0.571
	c0.127,0.745,0.236,1.493,0.33,2.24c0.033,0.253,0.064,0.507,0.092,0.76c0.079,0.717,0.143,1.434,0.191,2.152
	c0.019,0.244,0.039,0.487,0.051,0.729c0.051,0.943,0.085,1.887,0.085,2.832c0,1.654-0.079,3.305-0.236,4.952
	c-0.236,2.47-0.649,4.926-1.24,7.346c-0.197,0.808-0.413,1.612-0.649,2.41c-0.473,1.598-1.021,3.178-1.651,4.731
	c-2.515,6.215-6.291,12.038-11.325,17.071c-4.543,4.544-6.816,10.499-6.816,16.454c0,1.491,0.143,2.979,0.427,4.445
	c0.102,0.537,0.23,1.072,0.372,1.606c0.14,0.524,0.299,1.044,0.476,1.559c0.057,0.158,0.121,0.315,0.178,0.475
	c0.127,0.34,0.258,0.68,0.397,1.015c0.082,0.191,0.169,0.379,0.258,0.566c0.137,0.301,0.279,0.6,0.43,0.897
	c0.099,0.195,0.203,0.389,0.309,0.582c0.155,0.285,0.318,0.565,0.486,0.847c0.115,0.189,0.233,0.38,0.352,0.569
	c0.182,0.279,0.372,0.554,0.563,0.828c0.124,0.177,0.248,0.355,0.379,0.528c0.222,0.296,0.455,0.585,0.69,0.872
	c0.118,0.141,0.23,0.287,0.352,0.427c0.366,0.422,0.745,0.838,1.148,1.238c5.682,5.68,13.567,7.81,20.904,6.389
	c1.466-0.285,2.912-0.711,4.312-1.278c1.399-0.568,2.754-1.275,4.048-2.129c1.291-0.853,2.512-1.846,3.649-2.982
	c9.751-9.753,22.716-15.121,36.506-15.123c3.449,0,6.845,0.335,10.152,0.99c9.922,1.97,19.042,6.819,26.357,14.131
	c0.909,0.906,1.77,1.848,2.6,2.807c0.085,0.099,0.175,0.197,0.261,0.298c0.782,0.915,1.521,1.854,2.231,2.811
	c0.112,0.155,0.227,0.307,0.34,0.461c0.684,0.946,1.333,1.913,1.949,2.897c0.102,0.168,0.206,0.337,0.309,0.504
	c0.607,0.999,1.182,2.015,1.718,3.049c0.073,0.144,0.143,0.292,0.216,0.434c0.546,1.081,1.064,2.177,1.53,3.294
	c0.019,0.05,0.036,0.099,0.057,0.15c0.464,1.12,0.884,2.259,1.266,3.412c0.033,0.104,0.073,0.208,0.105,0.312
	c0.369,1.134,0.69,2.289,0.982,3.455c0.042,0.172,0.088,0.346,0.13,0.523c0.273,1.142,0.503,2.299,0.697,3.466
	c0.019,0.104,0.034,0.209,0.048,0.313c0.178,1.111,0.337,2.23,0.442,3.362c0.518,5.381,2.945,10.473,6.769,14.294
	c0.554,0.555,1.136,1.08,1.736,1.569c1.8,1.474,3.77,2.634,5.837,3.483c0.012,0.005,0.022,0.012,0.033,0.016
	c0.527,0.216,1.061,0.393,1.6,0.569c0.188,0.062,0.372,0.14,0.563,0.197c0.082,0.026,0.166,0.04,0.251,0.065
	c0.178,0.051,0.36,0.085,0.54,0.133c1.918,0.496,3.882,0.771,5.851,0.771c5.958-0.002,11.922-2.279,16.473-6.833
	c5.312-5.314,7.509-12.57,6.6-19.498l-0.064-0.605c0.476,2.948,0.394,5.998-0.306,8.983c-0.006,0.022-0.012,0.043-0.016,0.064
	c0.003-0.023,0.012-0.042,0.016-0.064c9.751-41.649,8.918-85.446-2.406-126.658c-11.685-42.532-34.439-81.589-65.797-112.947
	c-0.109-0.107-0.216-0.209-0.324-0.315l-98.747,98.747C337.98,173.475,338.047,173.537,338.113,173.601z"/>
<g>
	<path style="fill:#9BD44E;" d="M351.464,195.761c-0.085-0.29-0.188-0.576-0.279-0.864c0.363,1.154,0.697,2.316,0.976,3.488
		C351.95,197.505,351.723,196.63,351.464,195.761z"/>
	<path style="fill:#9BD44E;" d="M350.698,193.38c-0.296-0.844-0.614-1.682-0.954-2.513c0.461,1.125,0.867,2.265,1.246,3.415
		C350.889,193.981,350.802,193.677,350.698,193.38z"/>
</g>
<path style="fill:#3FA45A;" d="M193.542,7.784c-0.299,0.102-0.588,0.23-0.884,0.346c-0.397,0.155-0.794,0.303-1.179,0.476
	c-0.23,0.102-0.448,0.223-0.673,0.337c-0.436,0.216-0.874,0.43-1.294,0.672c-0.194,0.11-0.382,0.237-0.576,0.357
	c-0.43,0.261-0.855,0.531-1.263,0.818c-0.188,0.132-0.366,0.273-0.551,0.413c-0.391,0.293-0.776,0.594-1.148,0.912
	c-0.188,0.161-0.372,0.327-0.554,0.496c-0.343,0.309-0.673,0.627-0.995,0.957c-0.194,0.199-0.385,0.402-0.573,0.607
	c-0.285,0.315-0.56,0.636-0.827,0.967c-0.194,0.239-0.388,0.479-0.573,0.725c-0.236,0.317-0.458,0.639-0.676,0.965
	c-0.188,0.275-0.372,0.549-0.549,0.832c-0.197,0.321-0.375,0.652-0.557,0.982c-0.163,0.303-0.334,0.6-0.487,0.906
	c-0.178,0.366-0.337,0.743-0.496,1.125c-0.121,0.282-0.254,0.557-0.363,0.846c-0.254,0.664-0.476,1.337-0.67,2.026
	c-0.048,0.183-0.082,0.369-0.13,0.554c-0.133,0.538-0.261,1.075-0.36,1.626c-0.039,0.236-0.064,0.475-0.099,0.712
	c-0.073,0.506-0.14,1.013-0.178,1.53c-0.009,0.099-0.028,0.192-0.036,0.292c-0.012,0.191,0,0.374-0.009,0.562
	c-0.019,0.448-0.028,0.901-0.022,1.356c0.006,0.349,0.022,0.695,0.042,1.044c0.022,0.377,0.054,0.748,0.095,1.122
	c0.042,0.388,0.092,0.77,0.152,1.153c0.054,0.343,0.121,0.681,0.191,1.019c0.079,0.377,0.158,0.756,0.254,1.13
	c0.067,0.254,0.146,0.5,0.222,0.751c0.025,0.087,0.048,0.175,0.076,0.265c0.109,0.351,0.213,0.701,0.337,1.047
	c0.13,0.363,0.285,0.715,0.43,1.072c0.127,0.303,0.245,0.608,0.388,0.905c0.197,0.424,0.42,0.832,0.642,1.241
	c0.118,0.216,0.225,0.438,0.346,0.65c0.36,0.614,0.748,1.21,1.161,1.787c0.076,0.104,0.161,0.199,0.239,0.304
	c0.346,0.465,0.703,0.928,1.085,1.365c0.175,0.203,0.363,0.391,0.546,0.586c0.299,0.323,0.604,0.647,0.922,0.953
	c0.222,0.217,0.458,0.417,0.69,0.622c0.296,0.265,0.594,0.528,0.906,0.777c0.261,0.209,0.528,0.405,0.797,0.602
	c0.303,0.223,0.61,0.441,0.925,0.65c0.292,0.189,0.582,0.369,0.878,0.549c0.318,0.191,0.639,0.372,0.967,0.549
	c0.309,0.163,0.618,0.324,0.937,0.476c0.34,0.161,0.684,0.312,1.033,0.458c0.315,0.133,0.633,0.267,0.957,0.386
	c0.375,0.138,0.76,0.259,1.145,0.379c0.312,0.095,0.618,0.197,0.937,0.282c0.448,0.116,0.906,0.211,1.364,0.299
	c0.267,0.054,0.531,0.123,0.797,0.166c0.739,0.123,1.488,0.214,2.245,0.262c1.106,0.076,2.2,0.197,3.291,0.34
	c0.118,0.016,0.233,0.031,0.352,0.047c1.23,0.169,2.455,0.38,3.663,0.638c0.166,0.036,0.33,0.078,0.497,0.115
	c1.246,0.278,2.486,0.591,3.703,0.96c0.073,0.022,0.146,0.048,0.219,0.073c1.212,0.372,2.41,0.794,3.59,1.254
	c0.099,0.037,0.2,0.071,0.299,0.112c1.161,0.462,2.302,0.976,3.43,1.519c0.169,0.087,0.346,0.163,0.515,0.251
	c1.085,0.54,2.149,1.123,3.195,1.739c0.191,0.112,0.379,0.223,0.566,0.34c1.033,0.625,2.048,1.291,3.039,1.989
	c0.166,0.121,0.334,0.245,0.503,0.366c1.002,0.729,1.984,1.486,2.937,2.29c0.112,0.096,0.223,0.197,0.337,0.292
	c0.998,0.856,1.97,1.745,2.906,2.681c20.131,20.131,20.131,52.884,0,73.015c-4.546,4.544-6.819,10.502-6.816,16.456
	c-0.003,5.956,2.27,11.914,6.816,16.457c9.087,9.089,23.824,9.089,32.913,0c0.624-0.624,1.261-1.229,1.907-1.814
	c0.098-0.085,0.194-0.163,0.292-0.251c0.563-0.501,1.133-0.996,1.713-1.468c0.025-0.02,0.051-0.039,0.076-0.059
	c0.797-0.652,1.621-1.26,2.451-1.859c0.006-0.003,0.006-0.005,0.009-0.008c0.299-0.214,0.6-0.43,0.906-0.641
	c0.003-0.003,0.006-0.005,0.012-0.008c0.715-0.49,1.44-0.964,2.175-1.415c0.299-0.185,0.604-0.355,0.906-0.529
	c0.209-0.123,0.416-0.25,0.627-0.368c0.003-0.002,0.006-0.005,0.012-0.006c0.23-0.133,0.467-0.261,0.7-0.389
	c0.003-0.002,0.006-0.003,0.009-0.005c0.821-0.448,1.657-0.869,2.499-1.268c0.098-0.047,0.197-0.095,0.293-0.141
	c1.724-0.805,3.479-1.516,5.264-2.119c0.088-0.029,0.178-0.056,0.267-0.087c0.776-0.259,1.558-0.496,2.346-0.717
	c0.166-0.047,0.334-0.095,0.503-0.14c0.864-0.234,1.727-0.451,2.6-0.638c0.009-0.003,0.016-0.005,0.025-0.006
	c0.884-0.191,1.776-0.355,2.67-0.496c0.2-0.033,0.4-0.057,0.6-0.087c0.694-0.104,1.39-0.194,2.088-0.268
	c0.227-0.023,0.455-0.05,0.684-0.071c0.875-0.082,1.755-0.149,2.633-0.188c0.042-0.003,0.082-0.005,0.124-0.005
	c0.118-0.005,0.239,0.003,0.357,0c1.24-0.043,2.476-0.051,3.716-0.006c0.012,0.002,0.025,0,0.036,0.002
	c0.012,0,0.025,0.002,0.036,0.002c0.048,0.003,0.098,0.005,0.146,0.006c0.881,0.036,1.761,0.102,2.642,0.185
	c0.222,0.022,0.439,0.045,0.661,0.068c0.712,0.076,1.421,0.164,2.13,0.27c0.188,0.029,0.375,0.053,0.566,0.082
	c0.894,0.143,1.784,0.306,2.676,0.496c0.033,0.005,0.07,0.016,0.102,0.023c0.842,0.183,1.685,0.391,2.521,0.616
	c0.178,0.047,0.357,0.098,0.537,0.147c0.779,0.219,1.555,0.453,2.327,0.711c0.092,0.029,0.185,0.059,0.276,0.09
	c0.903,0.306,1.8,0.636,2.687,0.991c0.009,0.005,0.022,0.009,0.031,0.012c0.842,0.34,1.679,0.709,2.506,1.094
	c0.13,0.061,0.258,0.119,0.385,0.18c0.815,0.388,1.624,0.794,2.422,1.227c0.016,0.009,0.033,0.017,0.051,0.026
	c0.009,0.006,0.019,0.012,0.029,0.017c0.206,0.115,0.416,0.228,0.618,0.344c0.022,0.012,0.042,0.025,0.064,0.036
	c0.554,0.315,1.103,0.633,1.649,0.97c0.163,0.099,0.318,0.209,0.481,0.312c0.185,0.118,0.366,0.239,0.552,0.36
	c0.334,0.217,0.673,0.424,0.999,0.65c0.306,0.208,0.607,0.424,0.906,0.639c0.012,0.006,0.022,0.014,0.031,0.022
	c0.821,0.59,1.634,1.19,2.422,1.831c0.054,0.04,0.109,0.081,0.161,0.124c0.534,0.438,1.058,0.897,1.579,1.358
	c0.14,0.123,0.282,0.24,0.42,0.363c0.448,0.408,0.887,0.832,1.325,1.257l98.747-98.747C388.344,26.514,324.198-0.002,255.971,0
	c-20.265-0.002-40.503,2.403-60.164,7.137c-0.067,0.019-0.14,0.033-0.206,0.047c-0.006,0.003-0.009,0.003-0.012,0.005
	c-0.036,0.008-0.07,0.019-0.102,0.026c-0.543,0.135-1.072,0.296-1.603,0.47C193.773,7.72,193.652,7.744,193.542,7.784z"/>
<g>
	<polygon style="fill:#8DC63F;" points="277.261,165.145 277.267,165.142 277.258,165.146 	"/>
	<path style="fill:#8DC63F;" d="M327.338,165.499c0.016,0.009,0.033,0.02,0.051,0.029c-0.022-0.012-0.042-0.023-0.064-0.036
		C327.332,165.494,327.335,165.497,327.338,165.499z"/>
	<path style="fill:#8DC63F;" d="M332.95,271.044c-0.175-0.515-0.337-1.036-0.476-1.559c0.003,0.011,0.003,0.023,0.006,0.036
		C332.62,270.033,332.778,270.54,332.95,271.044z"/>
	<path style="fill:#8DC63F;" d="M332.101,267.879c0.102,0.538,0.227,1.074,0.372,1.606
		C332.331,268.953,332.204,268.416,332.101,267.879z"/>
	<path style="fill:#8DC63F;" d="M285.326,161.613c-1.784,0.605-3.539,1.314-5.264,2.119
		C281.785,162.928,283.54,162.22,285.326,161.613z"/>
	<path style="fill:#8DC63F;" d="M300.222,158.909c1.24-0.042,2.479-0.05,3.716-0.006
		C302.698,158.858,301.462,158.866,300.222,158.909z"/>
	<path style="fill:#8DC63F;" d="M299.741,158.914c-0.878,0.039-1.758,0.105-2.633,0.188c1.036-0.098,2.076-0.157,3.115-0.192
		c-0.118,0.005-0.239-0.005-0.357,0C299.822,158.911,299.783,158.912,299.741,158.914z"/>
	<path style="fill:#8DC63F;" d="M272.838,167.855c1.008-0.69,2.037-1.334,3.081-1.944c-0.303,0.174-0.607,0.344-0.906,0.529
		C274.276,166.892,273.553,167.363,272.838,167.855z"/>
	<path style="fill:#8DC63F;" d="M353.263,204.754c0.082,0.717,0.143,1.434,0.191,2.152
		C353.404,206.189,353.34,205.471,353.263,204.754z"/>
	<path style="fill:#8DC63F;" d="M352.841,201.753c0.127,0.745,0.236,1.493,0.33,2.24
		C353.078,203.244,352.968,202.498,352.841,201.753z"/>
	<path style="fill:#8DC63F;" d="M353.505,207.636c0.051,0.943,0.085,1.887,0.085,2.832
		C353.59,209.523,353.556,208.58,353.505,207.636z"/>
	<path style="fill:#8DC63F;" d="M352.647,200.6c-0.146-0.742-0.309-1.479-0.486-2.216c0.222,0.928,0.413,1.86,0.582,2.797
		C352.71,200.988,352.684,200.794,352.647,200.6z"/>
	<path style="fill:#8DC63F;" d="M352.744,201.182c0.036,0.189,0.064,0.38,0.098,0.571
		C352.808,201.562,352.78,201.373,352.744,201.182z"/>
	<path style="fill:#8DC63F;" d="M353.171,203.994c0.033,0.253,0.064,0.507,0.092,0.76
		C353.235,204.501,353.205,204.248,353.171,203.994z"/>
	<path style="fill:#8DC63F;" d="M353.453,206.906c0.019,0.244,0.039,0.487,0.051,0.729
		C353.492,207.393,353.47,207.151,353.453,206.906z"/>
	<path style="fill:#8DC63F;" d="M330.07,167.168c-0.185-0.121-0.366-0.242-0.552-0.36
		C329.704,166.926,329.886,167.048,330.07,167.168z"/>
	<path style="fill:#8DC63F;" d="M327.389,165.528c0.718,0.407,1.427,0.836,2.13,1.28c-0.163-0.101-0.318-0.211-0.481-0.312
		C328.492,166.161,327.943,165.843,327.389,165.528z"/>
	<path style="fill:#8DC63F;" d="M330.07,167.168c0.642,0.417,1.282,0.842,1.905,1.289c-0.299-0.216-0.6-0.431-0.906-0.639
		C330.744,167.593,330.404,167.385,330.07,167.168z"/>
	<path style="fill:#8DC63F;" d="M304.011,158.906c0.931,0.034,1.86,0.104,2.788,0.191c-0.881-0.082-1.761-0.149-2.642-0.185
		C304.107,158.911,304.059,158.909,304.011,158.906z"/>
</g>
</svg>